<svg xmlns="http://www.w3.org/2000/svg" viewBox="0 0 24 24" fill="#25D366">
  <path d="M12 0C5.373 0 0 5.373 0 12c0 2.117.553 4.102 1.518 5.826L0 24l6.336-1.491A11.933 11.933 0 0 0 12 24c6.627 0 12-5.373 12-12S18.627 0 12 0zm0 21.818a9.802 9.802 0 0 1-4.99-1.366l-.357-.213-3.762.986 1.004-3.659-.234-.375A9.82 9.82 0 0 1 2.182 12C2.182 6.57 6.57 2.182 12 2.182S21.818 6.57 21.818 12 17.43 21.818 12 21.818zm5.385-7.3c-.295-.147-1.745-.86-2.016-.957-.27-.098-.467-.147-.663.147-.196.295-.76.957-.932 1.154-.172.196-.344.22-.638.074-.295-.147-1.244-.459-2.368-1.462-.875-.78-1.466-1.744-1.637-2.039-.172-.295-.018-.454.129-.6.132-.132.295-.344.442-.517.147-.172.196-.295.295-.491.098-.196.049-.368-.025-.515-.074-.147-.663-1.598-.908-2.187-.239-.574-.483-.496-.663-.505l-.565-.01c-.196 0-.516.074-.786.368-.27.295-1.032 1.008-1.032 2.459s1.057 2.852 1.204 3.048c.147.196 2.08 3.177 5.042 4.457.705.305 1.255.486 1.684.623.708.225 1.352.193 1.861.117.568-.085 1.745-.713 1.991-1.402.245-.688.245-1.277.172-1.402-.074-.123-.27-.196-.565-.344z"/>
</svg>
